<?xml version="1.0" encoding="UTF-8"?> <svg xmlns="http://www.w3.org/2000/svg" viewBox="0 0 42.12 42.12"><defs><style>.cls-1{fill:#fff;}</style></defs><title>linkedin-icon</title><g id="Layer_2" data-name="Layer 2"><g id="Layer_1-2" data-name="Layer 1"><path class="cls-1" d="M21.06,0A21.06,21.06,0,1,0,42.12,21.06,21.06,21.06,0,0,0,21.06,0ZM32.79,31.29A1.72,1.72,0,0,1,31.05,33H11a1.72,1.72,0,0,1-1.74-1.7V11A1.72,1.72,0,0,1,11,9.33h20A1.72,1.72,0,0,1,32.79,11Z"></path><path class="cls-1" d="M25.13,18.21A3.51,3.51,0,0,0,21.93,20v0h0l0,0V18.46H18.38c0,1,0,10.67,0,10.67h3.55v-6A2.56,2.56,0,0,1,22,22.3,2,2,0,0,1,23.87,21c1.28,0,1.79,1,1.79,2.42v5.71h3.55V23C29.21,19.73,27.46,18.21,25.13,18.21Z"></path><path class="cls-1" d="M14.66,13.31a1.85,1.85,0,1,0,0,3.69h0a1.85,1.85,0,1,0,0-3.69Z"></path><rect class="cls-1" x="12.86" y="18.46" width="3.55" height="10.68"></rect></g></g></svg> 