<?xml version="1.0" encoding="UTF-8"?> <svg xmlns="http://www.w3.org/2000/svg" viewBox="0 0 42.12 42.12"><defs><style>.cls-1{fill:#fff;}</style></defs><title>twitter-logo</title><g id="Layer_2" data-name="Layer 2"><g id="Layer_1-2" data-name="Layer 1"><path class="cls-1" d="M21.06,0A21.06,21.06,0,1,0,42.12,21.06,21.06,21.06,0,0,0,21.06,0ZM31.67,16.82c0,.22,0,.45,0,.68A15.1,15.1,0,0,1,8.45,30.22a10.53,10.53,0,0,0,1.26.07A10.69,10.69,0,0,0,16.31,28a5.3,5.3,0,0,1-5-3.68,5.39,5.39,0,0,0,1,.09,5,5,0,0,0,1.4-.19A5.3,5.3,0,0,1,9.49,19V19a5.26,5.26,0,0,0,2.4.67,5.33,5.33,0,0,1-2.36-4.42,5.26,5.26,0,0,1,.72-2.67A15.11,15.11,0,0,0,21.19,18.1a5.41,5.41,0,0,1-.14-1.21,5.31,5.31,0,0,1,9.18-3.64A10.7,10.7,0,0,0,33.61,12a5.29,5.29,0,0,1-2.34,2.93,10.67,10.67,0,0,0,3.05-.83A10.82,10.82,0,0,1,31.67,16.82Z"></path></g></g></svg> 